<svg width="22" height="23" viewBox="0 0 22 23" fill="none" xmlns="http://www.w3.org/2000/svg">
<path d="M11.6754 0.24229C11.4823 0.0852573 11.2446 0 11 0C10.7554 0 10.5177 0.0852573 10.3246 0.24229L1.2738 7.60203C0.876877 7.92482 0.555769 8.33818 0.335003 8.81053C0.114236 9.28288 -0.000348096 9.80172 7.94346e-07 10.3274V20.7001C7.94346e-07 21.3101 0.231786 21.8951 0.644366 22.3264C1.05695 22.7577 1.61652 23 2.2 23H6.6C7.18348 23 7.74306 22.7577 8.15564 22.3264C8.56822 21.8951 8.8 21.3101 8.8 20.7001V13.8003H13.2V20.7001C13.2 21.3101 13.4318 21.8951 13.8444 22.3264C14.2569 22.7577 14.8165 23 15.4 23H19.8C20.3835 23 20.9431 22.7577 21.3556 22.3264C21.7682 21.8951 22 21.3101 22 20.7001V10.3274C22.0001 9.80153 21.8852 9.28257 21.664 8.8102C21.4429 8.33784 21.1213 7.92459 20.724 7.60203L11.6754 0.24229Z" fill="#8165EA"/>
</svg>
