<svg width="34" height="34" viewBox="0 0 34 34" fill="none" xmlns="http://www.w3.org/2000/svg">
<path d="M13.5999 24.6499L23.7999 16.9999L13.5999 9.34995V24.6499ZM16.9999 0C7.61596 0 0 7.61596 0 16.9999C0 26.3839 7.61596 33.9998 16.9999 33.9998C26.3839 33.9998 33.9998 26.3839 33.9998 16.9999C33.9998 7.61596 26.3839 0 16.9999 0ZM16.9999 30.5999C9.50295 30.5999 3.39998 24.4969 3.39998 16.9999C3.39998 9.50295 9.50295 3.39998 16.9999 3.39998C24.4969 3.39998 30.5999 9.50295 30.5999 16.9999C30.5999 24.4969 24.4969 30.5999 16.9999 30.5999Z" fill="#8D8D8D"/>
</svg>
