<svg width="21" height="18" viewBox="0 0 21 18" fill="none" xmlns="http://www.w3.org/2000/svg">
<path d="M19.0556 2.72222H15.75L14.9625 0.515278C14.9081 0.364263 14.8084 0.233727 14.677 0.141501C14.5456 0.0492756 14.389 -0.000141609 14.2285 3.04798e-07H6.77153C6.4434 3.04798e-07 6.14931 0.206597 6.03993 0.515278L5.25 2.72222H1.94444C0.870139 2.72222 0 3.59236 0 4.66667V15.75C0 16.8243 0.870139 17.6944 1.94444 17.6944H19.0556C20.1299 17.6944 21 16.8243 21 15.75V4.66667C21 3.59236 20.1299 2.72222 19.0556 2.72222ZM19.25 15.75C19.25 15.8569 19.1625 15.9444 19.0556 15.9444H1.94444C1.8375 15.9444 1.75 15.8569 1.75 15.75V4.66667C1.75 4.55972 1.8375 4.47222 1.94444 4.47222H6.48229L6.89792 3.31042L7.45451 1.75H13.5431L14.0997 3.31042L14.5153 4.47222H19.0556C19.1625 4.47222 19.25 4.55972 19.25 4.66667V15.75ZM10.5 6.02778C8.35139 6.02778 6.61111 7.76806 6.61111 9.91667C6.61111 12.0653 8.35139 13.8056 10.5 13.8056C12.6486 13.8056 14.3889 12.0653 14.3889 9.91667C14.3889 7.76806 12.6486 6.02778 10.5 6.02778ZM10.5 12.25C9.21181 12.25 8.16667 11.2049 8.16667 9.91667C8.16667 8.62847 9.21181 7.58333 10.5 7.58333C11.7882 7.58333 12.8333 8.62847 12.8333 9.91667C12.8333 11.2049 11.7882 12.25 10.5 12.25Z" fill="white"/>
</svg>
