<svg width="24" height="19" viewBox="0 0 24 19" fill="none" xmlns="http://www.w3.org/2000/svg">
<path d="M23.9905 2.25375C23.1081 2.6346 22.1602 2.89193 21.1635 3.00825C22.1916 2.40896 22.9604 1.46576 23.3265 0.354625C22.3606 0.913542 21.3034 1.30696 20.2007 1.51777C19.4586 0.746662 18.476 0.235558 17.4054 0.0638109C16.3349 -0.107936 15.2362 0.0692844 14.2801 0.567957C13.324 1.06663 12.5639 1.85885 12.1178 2.82163C11.6718 3.78441 11.5646 4.86388 11.8131 5.89244C9.8552 5.79671 7.93955 5.30114 6.19052 4.4379C4.44148 3.57465 2.89815 2.36302 1.66068 0.881644C1.23835 1.59188 0.995773 2.41535 0.99634 3.29234C0.996379 4.08184 1.19652 4.85924 1.57902 5.55557C1.96151 6.25191 2.51453 6.84565 3.189 7.2841C2.40711 7.25988 1.64235 7.05413 0.958368 6.684L0.958408 6.74576C0.959045 7.85306 1.35305 8.92628 2.07358 9.78332C2.7941 10.6404 3.79676 11.2284 4.91142 11.4478C4.18622 11.6389 3.42579 11.6671 2.68757 11.5301C3.00263 12.4829 3.6157 13.316 4.44093 13.9129C5.26616 14.5098 6.26224 14.8406 7.28974 14.859C5.54639 16.1924 3.39277 16.9157 1.17532 16.9125C0.782527 16.9126 0.390047 16.8903 -9.16541e-05 16.8456C2.25165 18.2549 4.87227 19.0029 7.54821 19C16.6066 19 21.5539 11.6938 21.5498 5.35719C21.5496 5.15132 21.5442 4.9434 21.5346 4.73753C22.4974 4.05917 23.3283 3.21915 23.9884 2.25683L23.9905 2.25375Z" fill="white"/>
</svg>
