<svg width="51" height="48" viewBox="0 0 51 48" fill="none" xmlns="http://www.w3.org/2000/svg">
<path fill-rule="evenodd" clip-rule="evenodd" d="M38.7786 18.5342C38.7485 18.8652 38.7339 19.1115 38.7078 19.6554L38.6942 19.9388L38.9305 20.0958C39.1976 20.2732 39.575 20.3817 40.0397 20.4001L40.063 20.401L40.0863 20.3997C40.8043 20.361 41.6195 20.1301 42.4731 19.721C42.6915 19.6119 42.9522 19.5658 43.2282 19.5658C43.53 19.5658 43.8373 19.6242 44.0908 19.731L44.106 19.7373L44.1215 19.7427C44.8752 20.0033 45.3234 20.5156 45.3352 21.0533C45.3477 21.758 44.6307 22.4501 43.0784 23.0649C42.9034 23.1379 42.6861 23.213 42.3806 23.3085C41.5866 23.5589 41.1419 23.7206 40.6634 23.9637C39.956 24.3229 39.4602 24.7515 39.2255 25.3075C38.9457 25.9375 39.0334 26.6871 39.4399 27.5307L39.4778 27.6223C39.513 27.7076 39.5856 27.8671 39.678 28.0556C39.8161 28.337 39.9806 28.6473 40.1711 28.9787C40.6988 29.8968 41.3369 30.825 42.0889 31.7119C44.2194 34.225 46.8575 35.9557 50.0304 36.478C50.3078 36.5227 50.5113 36.7711 50.4995 37.05C50.4845 37.1763 50.4584 37.284 50.4218 37.3665C49.9863 38.3636 47.8921 39.2164 44.0892 39.8013L43.883 39.833L43.7605 40.0019C43.7566 40.0073 43.7566 40.0073 43.7528 40.0127C43.6249 40.1953 43.5347 40.4748 43.4277 40.918C43.3937 41.0592 43.3692 41.1686 43.3192 41.399C43.1553 42.12 43.1296 42.2271 43.0382 42.5412C42.9308 42.9061 42.717 43.067 42.3423 43.067H42.2743C41.9794 43.067 41.6205 43.0275 41.2205 42.9417C40.2021 42.7382 39.3898 42.641 38.4064 42.641C37.7932 42.641 37.1434 42.7009 36.3881 42.8172C35.7188 42.9332 35.0846 43.1793 34.3963 43.5655C33.8785 43.8561 33.4658 44.1327 32.5295 44.7944C31.1632 45.7645 30.5013 46.1878 29.5983 46.6062C28.4068 47.1582 27.1878 47.446 25.8153 47.446C25.7721 47.446 25.7286 47.4439 25.6486 47.4385C25.5293 47.4305 25.4983 47.4288 25.4402 47.4288H25.3903L25.3413 47.4387C25.3233 47.4423 25.2979 47.4446 25.2586 47.4455C25.2399 47.4459 25.2235 47.446 25.1846 47.446C23.9577 47.446 22.8498 47.2123 21.7751 46.7646C20.9136 46.4058 20.139 45.9498 19.0962 45.2309C18.9268 45.1141 18.8837 45.084 18.469 44.7933C16.6524 43.492 15.8174 43.0234 14.62 42.8186C13.9744 42.6997 13.2844 42.641 12.5936 42.641C11.6171 42.641 10.8142 42.7466 9.78389 42.958L9.77223 42.9605C9.30987 43.067 8.97734 43.1182 8.72573 43.1182C8.27133 43.1182 8.0663 42.9334 7.96181 42.5751C7.91062 42.3993 7.86304 42.2138 7.81111 41.9919C7.78019 41.8597 7.6773 41.4006 7.6798 41.4115C7.63076 41.1858 7.60631 41.0764 7.57222 40.9352C7.46296 40.4825 7.37172 40.2015 7.23871 40.0186L7.11614 39.85L6.91011 39.8184C3.09975 39.2345 1.01506 38.384 0.579441 37.3864C0.541715 37.3012 0.515561 37.1932 0.500482 37.0672C0.488758 36.7883 0.692215 36.5399 0.967649 36.4954C3.95554 36.0024 6.47527 34.4326 8.55138 32.1322C9.40611 31.1851 10.1307 30.1726 10.7318 29.1535C10.9476 28.7876 11.1339 28.4432 11.2923 28.1263C11.3504 28.0101 11.4015 27.904 11.4464 27.8073C11.4757 27.7443 11.4889 27.7149 11.517 27.6518L11.5601 27.5548V27.5448C11.9489 26.702 12.0363 25.9574 11.7777 25.3322C11.5432 24.7717 11.0465 24.3414 10.3365 23.9808C9.85817 23.7379 9.41554 23.5768 8.62074 23.3257C8.25245 23.2029 8.09185 23.1475 7.91686 23.0803C6.90241 22.6788 6.25439 22.2414 5.91952 21.7975C5.68301 21.484 5.61825 21.1907 5.67327 20.8951C5.79996 20.2046 6.74187 19.5998 7.65228 19.5998C7.85182 19.5998 8.05426 19.6441 8.24873 19.7264C9.1993 20.1739 10.0525 20.4005 10.8046 20.4005C11.3186 20.4005 11.7469 20.2893 12.0493 20.1083L12.3042 19.9557L12.292 19.6589C12.2787 19.335 12.2733 19.2113 12.2646 19.039C12.2526 18.8025 12.2393 18.5954 12.2232 18.4001C12.2202 18.3496 12.2161 18.2801 12.2091 18.1626C12.2034 18.0656 12.199 17.9903 12.1946 17.9168C12.1164 16.5849 12.0759 15.7532 12.0538 14.8756C11.9785 11.895 12.1944 9.76239 12.8291 8.32987C14.2768 5.07395 16.5323 2.93047 19.3422 1.69053C21.2845 0.833499 23.2526 0.5 24.9631 0.5H25.9685C27.6887 0.5 29.6618 0.833186 31.6138 1.69085C34.4359 2.9308 36.7115 5.07535 38.1899 8.33392C38.6812 9.42639 38.9293 10.9647 38.9801 12.949C39.0183 14.4401 38.9644 15.733 38.7941 18.3923L38.7786 18.5342Z" fill="#FFFC00" stroke="#D6D6D6"/>
</svg>
