<svg width="32" height="24" viewBox="0 0 32 24" fill="none" xmlns="http://www.w3.org/2000/svg">
<path d="M32.0002 0H23.5791V13.7769C23.057 13.5916 22.4843 13.4738 21.8949 13.4738C19.099 13.4738 16.8422 15.7306 16.8422 18.5264C16.8422 21.3222 19.099 23.5791 21.8949 23.5791C24.6907 23.5791 26.9475 21.3222 26.9475 18.5264V3.36844H32.0002V0ZM20.2106 0H0V3.36844H20.2106V0ZM20.2106 6.73688H0V10.1053H20.2106V6.73688ZM13.4738 13.4738H0V16.8422H13.4738V13.4738ZM20.2106 18.5264C20.2106 17.6001 20.9685 16.8422 21.8949 16.8422C22.8212 16.8422 23.5791 17.6001 23.5791 18.5264C23.5791 19.4527 22.8212 20.2106 21.8949 20.2106C20.9685 20.2106 20.2106 19.4527 20.2106 18.5264Z" fill="#8D8D8D"/>
</svg>
