<svg width="19" height="25" viewBox="0 0 19 25" fill="none" xmlns="http://www.w3.org/2000/svg">
<path d="M9.50154 25C10.8792 25 12.0064 23.8462 12.0064 22.4359H6.99668C6.99668 23.1159 7.26059 23.7681 7.73034 24.249C8.20009 24.7299 8.83721 25 9.50154 25ZM17.0161 17.3077V10.8974C17.0161 6.96154 14.9621 3.66667 11.3802 2.79487V1.92308C11.3802 0.858974 10.5411 0 9.50154 0C8.46203 0 7.6229 0.858974 7.6229 1.92308V2.79487C4.02842 3.66667 1.98695 6.94872 1.98695 10.8974V17.3077L0.371317 18.9615C-0.417714 19.7692 0.133355 21.1538 1.24802 21.1538H17.7425C18.8572 21.1538 19.4208 19.7692 18.6318 18.9615L17.0161 17.3077Z" fill="#8D8D8D"/>
</svg>
