<svg width="18" height="18" viewBox="0 0 18 18" fill="none" xmlns="http://www.w3.org/2000/svg">
<path d="M16.2363 12.2746L13.6912 11.9841C13.0799 11.9139 12.4787 12.1243 12.0479 12.5552L10.2042 14.3989C7.36847 12.956 5.0438 10.6414 3.6009 7.79565L5.45462 5.94193C5.88549 5.51106 6.09591 4.90986 6.02577 4.29863L5.73519 1.77356C5.61494 0.761529 4.76324 0 3.74118 0H2.0077C0.875431 0 -0.0664599 0.941891 0.00368087 2.07416C0.534747 10.6313 7.37849 17.4651 15.9256 17.9961C17.0579 18.0663 17.9998 17.1244 17.9998 15.9921V14.2586C18.0098 13.2466 17.2483 12.3949 16.2363 12.2746Z" fill="#8165EA"/>
</svg>
