<svg width="18" height="18" viewBox="0 0 18 18" fill="none" xmlns="http://www.w3.org/2000/svg">
<path d="M17.3147 17.3822C16.8844 17.7712 16.3008 17.9897 15.6923 17.9897C15.0838 17.9897 14.5002 17.7712 14.0699 17.3822L9.00096 12.1444L3.93203 17.3804C3.7196 17.5756 3.46653 17.7309 3.18741 17.8372C2.90829 17.9435 2.60864 17.9989 2.30575 18C2.00287 18.0011 1.70273 17.948 1.42266 17.8437C1.14259 17.7394 0.888131 17.5861 0.673955 17.3924C0.459779 17.1988 0.290128 16.9688 0.174787 16.7156C0.0594462 16.4624 0.000697637 16.191 0.00193097 15.9172C0.0031643 15.6434 0.0643547 15.3725 0.181973 15.1201C0.299591 14.8678 0.471309 14.639 0.687222 14.4469L5.96075 9.00173L0.68531 3.55306C0.469397 3.36102 0.297679 3.13222 0.180061 2.87988C0.0624428 2.62754 0.00125235 2.35664 1.90232e-05 2.08281C-0.00121431 1.80898 0.0575342 1.53764 0.172875 1.28444C0.288216 1.03124 0.457867 0.801196 0.672043 0.607568C0.886219 0.41394 1.14068 0.260565 1.42075 0.15629C1.70082 0.0520144 2.00095 -0.00109781 2.30384 1.71981e-05C2.60673 0.0011322 2.90638 0.0564521 3.1855 0.162786C3.46462 0.26912 3.71769 0.424364 3.93011 0.619562L9.00096 5.85906L14.0699 0.619562C14.2823 0.424364 14.5354 0.26912 14.8145 0.162786C15.0936 0.0564521 15.3933 0.0011322 15.6962 1.71981e-05C15.999 -0.00109781 16.2992 0.0520144 16.5793 0.15629C16.8593 0.260565 17.1138 0.41394 17.328 0.607568C17.5421 0.801196 17.7118 1.03124 17.8271 1.28444C17.9425 1.53764 18.0012 1.80898 18 2.08281C17.9987 2.35664 17.9376 2.62754 17.8199 2.87988C17.7023 3.13222 17.5306 3.36102 17.3147 3.55306L12.0412 9.00173L17.3147 14.4469C17.528 14.6396 17.6973 14.8684 17.8127 15.1202C17.9282 15.372 17.9876 15.642 17.9876 15.9146C17.9876 16.1872 17.9282 16.4571 17.8127 16.7089C17.6973 16.9607 17.528 17.1895 17.3147 17.3822Z" fill="white"/>
</svg>
