<svg width="18" height="18" viewBox="0 0 18 18" fill="none" xmlns="http://www.w3.org/2000/svg">
<path d="M17.6885 15.071L13.94 11.3198C13.2177 10.597 12.0461 10.5968 11.3236 11.3193C10.6012 12.0417 10.6012 13.2129 11.3236 13.9352L15.0757 17.6874C15.491 18.1026 16.1745 18.1026 16.5897 17.6874L17.6885 16.5886C18.1037 16.1697 18.1037 15.4825 17.6885 15.071Z" fill="#AFAFAF"/>
<path d="M9.44452 10.8138C9.82302 11.1923 10.4367 11.1923 10.8152 10.8138C11.1937 10.4353 11.1937 9.82164 10.8152 9.44314L10.6498 9.27772C10.2382 8.86612 10.1946 8.22351 10.4327 7.69239C11.3331 5.6848 10.9618 3.24347 9.31407 1.59575C7.1864 -0.531917 3.72848 -0.531917 1.59713 1.59575C-0.534214 3.72342 -0.530539 7.18135 1.59713 9.31269C3.24485 10.9604 5.68617 11.3317 7.69377 10.4314C8.22489 10.1932 8.8675 10.2368 9.2791 10.6484L9.44452 10.8138ZM2.65545 8.23967C1.11207 6.69628 1.11207 4.19379 2.65545 2.65408C4.19884 1.11069 6.70133 1.11069 8.24105 2.65408C9.78443 4.19746 9.78443 6.69996 8.24105 8.23967C6.70133 9.78306 4.19884 9.78306 2.65545 8.23967Z" fill="#AFAFAF"/>
</svg>
