<svg width="14" height="25" viewBox="0 0 14 25" fill="none" xmlns="http://www.w3.org/2000/svg">
<path d="M13.8982 8.4375C13.7487 8.05176 13.4498 7.8125 13.1253 7.8125H7.41576L9.26935 1.60645C9.3776 1.24634 9.34453 0.835938 9.18163 0.513672C9.01873 0.191406 8.71736 0 8.4585 0H2.04167C1.60306 0 1.23264 0.434863 1.17467 1.01758L0.00797187 12.7363C-0.00886436 12.9016 0.00103812 13.0699 0.0370078 13.2296C0.0729776 13.3893 0.134173 13.5368 0.216446 13.6621C0.29865 13.7877 0.399907 13.8884 0.513463 13.9574C0.627019 14.0265 0.750263 14.0623 0.874973 14.0625H6.20896L4.6857 23.54C4.59797 24.0879 4.81217 24.6416 5.19613 24.8628C5.30842 24.9707 5.42509 25 5.54176 25C5.82319 25 6.09667 24.8169 6.26402 24.4902L13.8475 9.64648C14.0295 9.28711 14.0514 8.82324 13.8982 8.4375Z" fill="white"/>
</svg>
