<svg width="50" height="42" viewBox="0 0 50 42" fill="none" xmlns="http://www.w3.org/2000/svg">
<path d="M44.8812 10.3727C44.9116 10.8247 44.9116 11.2768 44.9116 11.733C44.9116 25.634 34.5927 41.6662 15.7242 41.6662V41.6578C10.1503 41.6662 4.69226 40.0288 0 36.9415C0.810481 37.0415 1.62503 37.0915 2.4416 37.0936C7.06074 37.0978 11.5478 35.5083 15.1818 32.5814C10.7922 32.496 6.94292 29.5608 5.59821 25.2757C7.13589 25.5799 8.72029 25.5174 10.2295 25.0945C5.44384 24.1029 2.00081 19.7907 2.00081 14.7828C2.00081 14.7369 2.00081 14.6932 2.00081 14.6494C3.42677 15.464 5.02336 15.916 6.65651 15.966C2.1491 12.8767 0.759699 6.72712 3.48162 1.91915C8.68982 8.49157 16.3742 12.4871 24.6232 12.91C23.7965 9.2561 24.9259 5.42722 27.5909 2.85866C31.7225 -1.12437 38.2206 -0.920217 42.1044 3.31488C44.4018 2.85033 46.6037 1.98581 48.6187 0.760906C47.8529 3.19614 46.2503 5.26473 44.1093 6.57922C46.1426 6.3334 48.1292 5.77511 50 4.92309C48.6228 7.0396 46.8881 8.88321 44.8812 10.3727Z" fill="#1D9BF0"/>
</svg>
