<svg width="30" height="30" viewBox="0 0 30 30" fill="none" xmlns="http://www.w3.org/2000/svg">
<path d="M15 6C15.3978 6 15.7794 5.84196 16.0607 5.56066C16.342 5.27936 16.5 4.89782 16.5 4.5V1.5C16.5 1.10218 16.342 0.720644 16.0607 0.43934C15.7794 0.158035 15.3978 0 15 0C14.6022 0 14.2206 0.158035 13.9393 0.43934C13.658 0.720644 13.5 1.10218 13.5 1.5V4.5C13.5 4.89782 13.658 5.27936 13.9393 5.56066C14.2206 5.84196 14.6022 6 15 6ZM28.5 13.5H25.5C25.1022 13.5 24.7206 13.658 24.4393 13.9393C24.158 14.2206 24 14.6022 24 15C24 15.3978 24.158 15.7794 24.4393 16.0607C24.7206 16.342 25.1022 16.5 25.5 16.5H28.5C28.8978 16.5 29.2794 16.342 29.5607 16.0607C29.842 15.7794 30 15.3978 30 15C30 14.6022 29.842 14.2206 29.5607 13.9393C29.2794 13.658 28.8978 13.5 28.5 13.5ZM6 15C6 14.6022 5.84196 14.2206 5.56066 13.9393C5.27936 13.658 4.89782 13.5 4.5 13.5H1.5C1.10218 13.5 0.720644 13.658 0.43934 13.9393C0.158035 14.2206 0 14.6022 0 15C0 15.3978 0.158035 15.7794 0.43934 16.0607C0.720644 16.342 1.10218 16.5 1.5 16.5H4.5C4.89782 16.5 5.27936 16.342 5.56066 16.0607C5.84196 15.7794 6 15.3978 6 15ZM6.33 4.5C6.0376 4.22351 5.64734 4.0745 5.24507 4.08576C4.84281 4.09701 4.46149 4.2676 4.185 4.56C3.90851 4.8524 3.7595 5.24266 3.77076 5.64493C3.78201 6.04719 3.9526 6.42851 4.245 6.705L6.405 8.79C6.54995 8.92997 6.72162 9.03929 6.90975 9.11145C7.09789 9.18361 7.29863 9.21713 7.5 9.21C7.70206 9.20923 7.90188 9.16764 8.08746 9.08774C8.27305 9.00783 8.44058 8.89125 8.58 8.745C8.85938 8.46396 9.01619 8.08378 9.01619 7.6875C9.01619 7.29122 8.85938 6.91104 8.58 6.63L6.33 4.5ZM22.5 9.21C22.8862 9.20846 23.2569 9.05802 23.535 8.79L25.695 6.705C25.9585 6.42968 26.1073 6.06438 26.1112 5.6833C26.1152 5.30223 25.9739 4.93394 25.7161 4.65325C25.4583 4.37256 25.1034 4.20052 24.7234 4.17205C24.3433 4.14359 23.9667 4.26084 23.67 4.5L21.51 6.63C21.2306 6.91104 21.0738 7.29122 21.0738 7.6875C21.0738 8.08378 21.2306 8.46396 21.51 8.745C21.7697 9.01908 22.1232 9.18513 22.5 9.21ZM15 24C14.6022 24 14.2206 24.158 13.9393 24.4393C13.658 24.7206 13.5 25.1022 13.5 25.5V28.5C13.5 28.8978 13.658 29.2794 13.9393 29.5607C14.2206 29.842 14.6022 30 15 30C15.3978 30 15.7794 29.842 16.0607 29.5607C16.342 29.2794 16.5 28.8978 16.5 28.5V25.5C16.5 25.1022 16.342 24.7206 16.0607 24.4393C15.7794 24.158 15.3978 24 15 24ZM23.595 21.21C23.3086 20.9335 22.924 20.7821 22.526 20.7892C22.1279 20.7962 21.749 20.9611 21.4725 21.2475C21.196 21.5339 21.0446 21.9185 21.0517 22.3165C21.0587 22.7146 21.2236 23.0935 21.51 23.37L23.67 25.5C23.9481 25.768 24.3188 25.9185 24.705 25.92C24.906 25.9212 25.1052 25.8819 25.2907 25.8046C25.4762 25.7273 25.6443 25.6135 25.785 25.47C25.9256 25.3306 26.0372 25.1647 26.1133 24.9819C26.1895 24.7991 26.2287 24.603 26.2287 24.405C26.2287 24.207 26.1895 24.0109 26.1133 23.8281C26.0372 23.6453 25.9256 23.4794 25.785 23.34L23.595 21.21ZM6.405 21.21L4.245 23.295C4.10441 23.4344 3.99282 23.6003 3.91666 23.7831C3.84051 23.9659 3.8013 24.162 3.8013 24.36C3.8013 24.558 3.84051 24.7541 3.91666 24.9369C3.99282 25.1197 4.10441 25.2856 4.245 25.425C4.38569 25.5685 4.55379 25.6823 4.73932 25.7596C4.92484 25.8369 5.12402 25.8762 5.325 25.875C5.69477 25.8782 6.05267 25.7446 6.33 25.5L8.49 23.415C8.77643 23.1385 8.9413 22.7596 8.94833 22.3615C8.95537 21.9635 8.80399 21.5789 8.5275 21.2925C8.25101 21.0061 7.87206 20.8412 7.47402 20.8342C7.07597 20.8271 6.69143 20.9785 6.405 21.255V21.21ZM15 9C13.8133 9 12.6533 9.35189 11.6666 10.0112C10.6799 10.6705 9.91085 11.6075 9.45672 12.7039C9.0026 13.8003 8.88378 15.0067 9.11529 16.1705C9.3468 17.3344 9.91824 18.4035 10.7574 19.2426C11.5965 20.0818 12.6656 20.6532 13.8295 20.8847C14.9933 21.1162 16.1997 20.9974 17.2961 20.5433C18.3925 20.0892 19.3295 19.3201 19.9888 18.3334C20.6481 17.3467 21 16.1867 21 15C21 13.4087 20.3679 11.8826 19.2426 10.7574C18.1174 9.63214 16.5913 9 15 9Z" fill="white"/>
</svg>
