<svg width="24" height="16" viewBox="0 0 24 16" fill="none" xmlns="http://www.w3.org/2000/svg">
<path fill-rule="evenodd" clip-rule="evenodd" d="M9.79989 0.727893C9.80009 0.576226 9.7293 0.428311 9.59741 0.304849C9.46553 0.181386 9.27915 0.0885541 9.06437 0.0393442C8.84958 -0.00986577 8.61714 -0.0129912 8.39956 0.0304053C8.18199 0.0738018 7.99017 0.161549 7.85095 0.281366L0.229402 6.82656C0.0807224 6.95422 0 7.11134 0 7.27308C0 7.43482 0.0807224 7.59195 0.229402 7.71961L7.85095 14.2648C7.99017 14.3846 8.18199 14.4724 8.39956 14.5158C8.61714 14.5592 8.84958 14.556 9.06437 14.5068C9.27915 14.4576 9.46553 14.3648 9.59741 14.2413C9.7293 14.1179 9.80009 13.9699 9.79989 13.8183V10.9166C15.6565 10.998 18.4699 11.7405 19.8832 12.5478C21.2268 13.315 21.4728 14.2175 21.7287 15.1629L21.7951 15.4066C21.844 15.5809 21.9865 15.7373 22.1959 15.8463C22.4054 15.9554 22.6672 16.0095 22.9322 15.9986C23.1973 15.9877 23.4472 15.9125 23.635 15.7871C23.8228 15.6618 23.9356 15.4949 23.952 15.3179C24.1382 13.3194 23.8584 10.4235 21.745 8.00105C19.6938 5.64988 15.9995 3.84195 9.79989 3.65287V0.727893Z" fill="white"/>
</svg>
