<svg width="30" height="30" viewBox="0 0 30 30" fill="none" xmlns="http://www.w3.org/2000/svg">
<path d="M25.5082 20.4333C24.1691 18.9825 22.5442 17.8247 20.7356 17.0328C18.9271 16.2409 16.9742 15.832 14.9998 15.832C13.0255 15.832 11.0726 16.2409 9.26405 17.0328C7.45551 17.8247 5.83055 18.9825 4.4915 20.4333C4.28477 20.6619 4.16912 20.9585 4.1665 21.2667V26.2667C4.17089 26.5953 4.30451 26.909 4.53846 27.1398C4.77241 27.3706 5.08785 27.5 5.4165 27.5H24.5832C24.9147 27.5 25.2326 27.3683 25.4671 27.1339C25.7015 26.8995 25.8332 26.5815 25.8332 26.25V21.25C25.8265 20.9476 25.7111 20.6576 25.5082 20.4333Z" fill="#8165EA"/>
<path d="M14.9998 14.1667C18.2215 14.1667 20.8332 11.555 20.8332 8.33333C20.8332 5.11167 18.2215 2.5 14.9998 2.5C11.7782 2.5 9.1665 5.11167 9.1665 8.33333C9.1665 11.555 11.7782 14.1667 14.9998 14.1667Z" fill="#8165EA"/>
</svg>
