<svg width="93" height="175" viewBox="0 0 93 175" fill="none" xmlns="http://www.w3.org/2000/svg">
<path opacity="0.7" d="M45.0185 149.225L45.5999 149.863L45.8657 149.041C46.84 146.025 49.1988 143.745 52.2779 143.075C57.1 142.025 62.0621 145.494 63.2303 150.899C63.7546 153.325 63.2719 156.011 62.2054 158.711C61.1406 161.408 59.511 164.076 57.8004 166.443C56.0915 168.808 54.3123 170.858 52.9592 172.317C52.283 173.046 51.7143 173.627 51.3152 174.025C51.1489 174.191 51.0121 174.325 50.9093 174.425C50.7744 174.376 50.5942 174.31 50.3738 174.227C49.8458 174.029 49.0876 173.734 48.1704 173.348C46.3348 172.576 43.8673 171.442 41.3344 169.996C38.7991 168.548 36.2135 166.794 34.1319 164.787C32.0467 162.776 30.5016 160.543 29.9821 158.139C28.8139 152.734 31.8977 147.513 36.7198 146.463C39.7989 145.792 42.8869 146.886 45.0185 149.225Z" fill="#00B78A" stroke="white"/>
<path opacity="0.7" d="M76.0578 133.972L76.1409 134.89L76.8649 134.324C79.6835 132.121 83.2093 131.512 86.2982 132.857C91.1342 134.962 93.1979 141.393 90.6729 147.236C89.5401 149.857 87.3643 152.064 84.6866 153.902C82.0119 155.737 78.8697 157.183 75.8566 158.294C72.8457 159.405 69.979 160.177 67.864 160.671C66.807 160.918 65.939 161.096 65.3362 161.211C65.0808 161.26 64.8731 161.298 64.7188 161.325C64.6335 161.193 64.5192 161.013 64.3804 160.791C64.0535 160.268 63.5907 159.508 63.0496 158.561C61.9668 156.666 60.573 154.028 59.326 151.057C58.078 148.083 56.9833 144.789 56.4892 141.579C55.9945 138.364 56.108 135.273 57.2306 132.676C59.7556 126.832 65.8434 123.951 70.6794 126.056C73.7682 127.401 75.7344 130.401 76.0578 133.972Z" fill="#E34949" stroke="white"/>
<path opacity="0.8" d="M35.3407 117.525L35.9085 118.133L36.1807 117.345C37.0867 114.724 39.2319 112.728 42.018 112.133C46.3822 111.202 50.8029 114.217 51.7948 118.901C52.2396 121.002 51.7807 123.339 50.7894 125.702C49.8001 128.06 48.3 130.397 46.728 132.473C45.1577 134.547 43.5268 136.346 42.2874 137.627C41.6681 138.267 41.1475 138.777 40.7824 139.126C40.6383 139.264 40.5184 139.377 40.4263 139.463C40.3072 139.421 40.1517 139.367 39.9636 139.299C39.4881 139.127 38.8052 138.871 37.9793 138.536C36.3265 137.866 34.106 136.881 31.8299 135.623C29.5512 134.363 27.233 132.838 25.3742 131.091C23.5112 129.34 22.1477 127.402 21.7069 125.321C20.715 120.637 23.5319 116.078 27.8961 115.147C30.6821 114.552 33.4505 115.499 35.3407 117.525Z" fill="#EB73F5" stroke="white"/>
<path opacity="0.6" d="M64.2269 98.3593L64.3828 99.2025L65.0402 98.6547C66.8496 97.1469 69.2448 96.6547 71.4613 97.4598C74.9289 98.7194 76.7155 102.878 75.3186 106.753C74.6943 108.485 73.325 109.989 71.5614 111.277C69.8017 112.562 67.6875 113.603 65.6372 114.422C63.5894 115.239 61.6219 115.828 60.1649 116.212C59.437 116.403 58.8379 116.544 58.4217 116.636C58.2844 116.667 58.167 116.692 58.0715 116.712C58.011 116.635 57.9368 116.539 57.8507 116.427C57.5903 116.087 57.2202 115.592 56.784 114.974C55.9109 113.739 54.776 112.017 53.7248 110.069C52.6723 108.119 51.7122 105.958 51.1782 103.843C50.6429 101.723 50.5475 99.6952 51.166 97.9795C52.5629 94.1047 56.5869 92.0569 60.0545 93.3165C62.271 94.1216 63.7978 96.0384 64.2269 98.3593Z" fill="#5FE1D9" stroke="white"/>
<path opacity="0.5" d="M36.874 76.1081L37.3817 76.7235L37.7158 75.9983C38.9173 73.3905 41.3857 71.5059 44.4213 71.11C49.1814 70.4891 53.6007 73.9302 54.2274 78.7704C54.5089 80.9448 53.8103 83.2933 52.5417 85.6301C51.276 87.9614 49.4692 90.2324 47.6098 92.2313C45.7526 94.2279 43.8559 95.9392 42.4222 97.1521C41.7059 97.7581 41.1062 98.2388 40.6863 98.5675C40.5081 98.7069 40.3624 98.819 40.2539 98.9016C40.1279 98.849 39.9581 98.7773 39.7499 98.6872C39.26 98.4752 38.5574 98.1616 37.71 97.7564C36.0142 96.9456 33.7436 95.7704 31.4388 94.3116C29.1313 92.8512 26.8056 91.1166 24.9885 89.1906C23.1669 87.2599 21.8956 85.1785 21.6167 83.0242C20.9901 78.184 24.3865 73.7234 29.1465 73.1025C32.1821 72.7065 35.0484 73.8951 36.874 76.1081Z" fill="#A2FF69" stroke="white"/>
<path opacity="0.4" d="M15.3955 42.5565L15.7181 43.2935L16.2372 42.6799C17.9056 40.7083 20.4892 39.6758 23.1996 40.0733C27.4478 40.6964 30.4257 44.7629 29.7907 49.1255C29.5058 51.0824 28.3335 52.9549 26.6664 54.6815C25.0034 56.4038 22.8859 57.9418 20.7875 59.2303C18.6916 60.5172 16.631 61.5455 15.0929 62.2524C14.3244 62.6056 13.6876 62.878 13.2438 63.0617C13.0705 63.1335 12.9267 63.1917 12.816 63.2359C12.7225 63.1612 12.6012 63.0634 12.4555 62.944C12.0828 62.6386 11.5506 62.1923 10.9152 61.6303C9.64357 60.5057 7.96294 58.9218 6.32201 57.0822C4.679 55.2403 3.08849 53.156 1.9854 51.031C0.879343 48.9003 0.289183 46.7785 0.571388 44.8399C1.20646 40.4773 5.21909 37.4361 9.46727 38.0591C12.1777 38.4567 14.3589 40.1881 15.3955 42.5565Z" fill="#9997FD" stroke="white"/>
<path opacity="0.3" d="M45.2793 29.4972L45.8684 30.0678L46.1073 29.2818C46.7847 27.0529 48.5341 25.2955 50.8784 24.6856C54.5498 23.7305 58.4003 26.0796 59.4015 29.9572C59.8496 31.6927 59.5434 33.6696 58.7789 35.701C58.0164 37.7272 56.8163 39.759 55.5435 41.5759C54.2725 43.3905 52.9398 44.9757 51.9237 46.1081C51.4161 46.6739 50.9884 47.1257 50.6883 47.4353C50.5839 47.5431 50.4949 47.6336 50.4234 47.7057C50.3258 47.6771 50.2039 47.6408 50.06 47.5969C49.6474 47.4709 49.0543 47.2824 48.3361 47.0329C46.8985 46.5334 44.9647 45.7916 42.9744 44.8212C40.9813 43.8494 38.9483 42.6565 37.3018 41.2597C35.6507 39.8591 34.4292 38.2882 33.9853 36.5691C32.9842 32.6915 35.2133 28.7608 38.8847 27.8057C41.229 27.1958 43.6086 27.8792 45.2793 29.4972Z" fill="#97CCFD" stroke="white"/>
<path opacity="0.2" d="M65.049 4.66571L65.1736 5.49274L65.843 4.99509C67.212 3.97729 68.9873 3.71341 70.6003 4.38257C73.1215 5.42854 74.327 8.50483 73.198 11.25C72.6959 12.4708 71.6486 13.5113 70.2953 14.3874C68.9464 15.2608 67.3351 15.9439 65.7723 16.4664C64.2122 16.9881 62.7177 17.3441 61.6118 17.5698C61.0595 17.6826 60.6054 17.7625 60.2904 17.8141C60.2174 17.8261 60.1518 17.8365 60.0942 17.8455C60.0597 17.798 60.0206 17.7437 59.9772 17.6829C59.7907 17.4218 59.5257 17.0418 59.2143 16.5686C58.5907 15.6212 57.7836 14.3052 57.0459 12.8269C56.3068 11.3458 55.6456 9.7181 55.3026 8.1449C54.9585 6.56621 54.9458 5.09291 55.443 3.88409C56.572 1.13895 59.5877 -0.18613 62.109 0.859837C63.7219 1.529 64.7943 2.97426 65.049 4.66571Z" fill="#3DFF39" stroke="white"/>
<path opacity="0.5" d="M60.2343 62.2513L60.4572 63.0747L61.0674 62.4806C62.947 60.6508 65.5735 59.8939 68.1194 60.5948C72.1048 61.6919 74.463 66.1524 73.2577 70.5638C72.718 72.5393 71.3292 74.3234 69.4886 75.8986C67.6518 77.4707 65.4012 78.8037 63.2033 79.8841C61.0079 80.9632 58.8811 81.7827 57.3019 82.3325C56.5128 82.6072 55.8618 82.8141 55.4089 82.9521C55.2427 83.0028 55.1033 83.0441 54.9935 83.0761C54.9154 82.9919 54.8164 82.8842 54.6992 82.7546C54.3802 82.4021 53.926 81.8882 53.3876 81.2451C52.3101 79.958 50.8989 78.1574 49.5601 76.1005C48.2198 74.0412 46.9619 71.7397 46.18 69.4499C45.3963 67.1551 45.1067 64.9187 45.6414 62.9615C46.8467 58.5501 51.1419 55.9211 55.1272 57.0182C57.6732 57.7191 59.5476 59.715 60.2343 62.2513Z" fill="#FFDE69" stroke="white"/>
</svg>
