<svg width="130" height="130" viewBox="0 0 130 130" fill="none" xmlns="http://www.w3.org/2000/svg">
<path d="M65 121.875C49.9158 121.875 35.4494 115.883 24.7833 105.217C14.1172 94.5506 8.125 80.0842 8.125 65C8.125 49.9158 14.1172 35.4494 24.7833 24.7833C35.4494 14.1172 49.9158 8.125 65 8.125C80.0842 8.125 94.5506 14.1172 105.217 24.7833C115.883 35.4494 121.875 49.9158 121.875 65C121.875 80.0842 115.883 94.5506 105.217 105.217C94.5506 115.883 80.0842 121.875 65 121.875ZM65 130C82.2391 130 98.7721 123.152 110.962 110.962C123.152 98.7721 130 82.2391 130 65C130 47.7609 123.152 31.2279 110.962 19.0381C98.7721 6.8482 82.2391 0 65 0C47.7609 0 31.2279 6.8482 19.0381 19.0381C6.8482 31.2279 0 47.7609 0 65C0 82.2391 6.8482 98.7721 19.0381 110.962C31.2279 123.152 47.7609 130 65 130Z" fill="#F8F8F8"/>
<path d="M50.9519 41.0718C51.6164 40.7296 52.3624 40.5774 53.1078 40.6319C53.8532 40.6864 54.5692 40.9454 55.1769 41.3806L83.6144 61.6931C84.141 62.0689 84.5703 62.565 84.8664 63.1402C85.1626 63.7154 85.3171 64.353 85.3171 65C85.3171 65.6469 85.1626 66.2845 84.8664 66.8597C84.5703 67.4349 84.141 67.931 83.6144 68.3068L55.1769 88.6193C54.5694 89.0541 53.8538 89.313 53.1088 89.3674C52.3637 89.4219 51.6181 89.2699 50.9538 88.9281C50.2895 88.5863 49.7324 88.068 49.3436 87.4301C48.9548 86.7922 48.7494 86.0595 48.75 85.3125V44.6874C48.7492 43.9406 48.9543 43.208 49.3428 42.5702C49.7312 41.9323 50.288 41.4139 50.9519 41.0718Z" fill="#F8F8F8"/>
</svg>
