<svg width="25" height="19" viewBox="0 0 25 19" fill="none" xmlns="http://www.w3.org/2000/svg">
<path d="M16.875 3.90625C16.875 2.87025 16.4634 1.87668 15.7309 1.14411C14.9983 0.41155 14.0048 0 12.9688 0H3.90625C2.87025 0 1.87668 0.41155 1.14411 1.14411C0.41155 1.87668 0 2.87025 0 3.90625V14.8438C0 15.8798 0.41155 16.8733 1.14411 17.6059C1.87668 18.3384 2.87025 18.75 3.90625 18.75H12.9688C14.0048 18.75 14.9983 18.3384 15.7309 17.6059C16.4634 16.8733 16.875 15.8798 16.875 14.8438V3.90625ZM18.125 12.8325L22.4756 16.23C23.5019 17.0312 25 16.3 25 14.9988V3.75188C25 2.45 23.5019 1.71938 22.4756 2.52063L18.125 5.9175V12.8319V12.8325Z" fill="#8D8D8D"/>
</svg>
