<svg width="30" height="30" viewBox="0 0 30 30" fill="none" xmlns="http://www.w3.org/2000/svg">
<path d="M25.5084 20.4333C24.1694 18.9825 22.5444 17.8247 20.7359 17.0328C18.9273 16.2409 16.9744 15.832 15.0001 15.832C13.0258 15.832 11.0728 16.2409 9.2643 17.0328C7.45576 17.8247 5.83079 18.9825 4.49175 20.4333C4.28501 20.6619 4.16937 20.9585 4.16675 21.2667V26.2667C4.17113 26.5953 4.30476 26.909 4.53871 27.1398C4.77265 27.3706 5.0881 27.5 5.41675 27.5H24.5834C24.9149 27.5 25.2329 27.3683 25.4673 27.1339C25.7017 26.8995 25.8334 26.5815 25.8334 26.25V21.25C25.8268 20.9476 25.7114 20.6576 25.5084 20.4333Z" fill="#8D8D8D"/>
<path d="M15.0001 14.1667C18.2217 14.1667 20.8334 11.555 20.8334 8.33333C20.8334 5.11167 18.2217 2.5 15.0001 2.5C11.7784 2.5 9.16675 5.11167 9.16675 8.33333C9.16675 11.555 11.7784 14.1667 15.0001 14.1667Z" fill="#8D8D8D"/>
</svg>
