<svg width="21" height="21" viewBox="0 0 21 21" fill="none" xmlns="http://www.w3.org/2000/svg">
<path d="M1.08552 0.0792223C0.959964 0.0164269 0.819307 -0.00987159 0.679547 0.00331835C0.539787 0.0165083 0.406535 0.0686572 0.294947 0.153833C0.183359 0.239009 0.0979148 0.353792 0.048335 0.485126C-0.00124483 0.61646 -0.0129706 0.759073 0.0144917 0.896741L2.11904 8.17191C2.15828 8.30749 2.23498 8.42924 2.34033 8.52318C2.44567 8.61711 2.57538 8.67941 2.71455 8.70292L11.2498 10.1325C11.6518 10.212 11.6518 10.788 11.2498 10.8675L2.71455 12.297C2.57538 12.3205 2.44567 12.3828 2.34033 12.4768C2.23498 12.5707 2.15828 12.6924 2.11904 12.828L0.0144917 20.1032C-0.0129706 20.2409 -0.00124483 20.3835 0.048335 20.5148C0.0979148 20.6461 0.183359 20.7609 0.294947 20.8461C0.406535 20.9313 0.539787 20.9834 0.679547 20.9966C0.819307 21.0098 0.959964 20.9835 1.08552 20.9207L20.586 11.1705C20.7104 11.1081 20.815 11.0124 20.8881 10.894C20.9612 10.7756 20.9999 10.6391 20.9999 10.5C20.9999 10.3608 20.9612 10.2244 20.8881 10.106C20.815 9.98755 20.7104 9.8918 20.586 9.82945L1.08552 0.0792223Z" fill="white"/>
</svg>
