<svg width="24" height="5" viewBox="0 0 24 5" fill="none" xmlns="http://www.w3.org/2000/svg">
<path d="M2.4 5C3.72548 5 4.8 3.88071 4.8 2.5C4.8 1.11929 3.72548 0 2.4 0C1.07452 0 0 1.11929 0 2.5C0 3.88071 1.07452 5 2.4 5Z" fill="white"/>
<path d="M12.0001 5C13.3256 5 14.4001 3.88071 14.4001 2.5C14.4001 1.11929 13.3256 0 12.0001 0C10.6746 0 9.6001 1.11929 9.6001 2.5C9.6001 3.88071 10.6746 5 12.0001 5Z" fill="white"/>
<path d="M21.6002 5C22.9257 5 24.0002 3.88071 24.0002 2.5C24.0002 1.11929 22.9257 0 21.6002 0C20.2747 0 19.2002 1.11929 19.2002 2.5C19.2002 3.88071 20.2747 5 21.6002 5Z" fill="white"/>
</svg>
