<svg width="25" height="25" viewBox="0 0 25 25" fill="none" xmlns="http://www.w3.org/2000/svg">
<path d="M24.7538 10.1559C24.9132 10.9927 25 11.8676 25 12.7806C25 19.922 20.1226 25 12.7559 25C11.0806 25.0005 9.42169 24.6775 7.87384 24.0495C6.32599 23.4215 4.91958 22.5008 3.73498 21.3399C2.55039 20.1791 1.61081 18.8009 0.969947 17.2841C0.329083 15.7673 -0.000510188 14.1417 5.9277e-07 12.5C-0.000510188 10.8583 0.329083 9.23266 0.969947 7.71586C1.61081 6.19907 2.55039 4.82088 3.73498 3.66005C4.91958 2.49922 6.32599 1.57849 7.87384 0.950487C9.42169 0.32248 11.0806 -0.000499952 12.7559 5.80877e-07C16.2002 5.80877e-07 19.0782 1.24187 21.2862 3.25833L17.6904 6.78205V6.77316C16.3518 5.52367 14.653 4.88242 12.7559 4.88242C8.54714 4.88242 5.12621 8.36677 5.12621 12.4924C5.12621 16.6167 8.54714 20.1087 12.7559 20.1087C16.5747 20.1087 19.1741 17.9691 19.7079 15.0307H12.7559V10.1559H24.7551H24.7538Z" fill="white"/>
</svg>
