<svg width="19" height="18" viewBox="0 0 19 18" fill="none" xmlns="http://www.w3.org/2000/svg">
<path d="M9.5 0C4.25273 0 0 3.74062 0 8.35714C0 10.35 0.794141 12.1741 2.11523 13.6085C1.65137 15.6335 0.100195 17.4375 0.0816406 17.4576C0 17.55 -0.0222656 17.6866 0.0259766 17.8071C0.0742188 17.9277 0.178125 18 0.296875 18C2.75723 18 4.60156 16.7223 5.51445 15.9348C6.72793 16.429 8.075 16.7143 9.5 16.7143C14.7473 16.7143 19 12.9737 19 8.35714C19 3.74062 14.7473 0 9.5 0ZM4.75 9.64286C4.09316 9.64286 3.5625 9.0683 3.5625 8.35714C3.5625 7.64598 4.09316 7.07143 4.75 7.07143C5.40684 7.07143 5.9375 7.64598 5.9375 8.35714C5.9375 9.0683 5.40684 9.64286 4.75 9.64286ZM9.5 9.64286C8.84316 9.64286 8.3125 9.0683 8.3125 8.35714C8.3125 7.64598 8.84316 7.07143 9.5 7.07143C10.1568 7.07143 10.6875 7.64598 10.6875 8.35714C10.6875 9.0683 10.1568 9.64286 9.5 9.64286ZM14.25 9.64286C13.5932 9.64286 13.0625 9.0683 13.0625 8.35714C13.0625 7.64598 13.5932 7.07143 14.25 7.07143C14.9068 7.07143 15.4375 7.64598 15.4375 8.35714C15.4375 9.0683 14.9068 9.64286 14.25 9.64286Z" fill="white"/>
</svg>
