<svg width="120" height="120" viewBox="0 0 120 120" fill="none" xmlns="http://www.w3.org/2000/svg">
<path d="M60 67.5C67.2487 67.5 73.125 61.6237 73.125 54.375C73.125 47.1263 67.2487 41.25 60 41.25C52.7513 41.25 46.875 47.1263 46.875 54.375C46.875 61.6237 52.7513 67.5 60 67.5Z" fill="white"/>
<path d="M105 48.75C102.679 48.7565 100.417 49.4808 98.5236 50.8235C96.6304 52.1662 95.1988 54.0617 94.4251 56.25H89.7376C88.9084 49.6431 85.9046 43.4999 81.1996 38.7881C76.4946 34.0763 70.3558 31.0638 63.7501 30.225V25.575C66.2522 24.6904 68.3609 22.9497 69.7037 20.6607C71.0465 18.3717 71.5368 15.6816 71.0881 13.066C70.6393 10.4504 69.2803 8.07764 67.2513 6.36711C65.2223 4.65657 62.6539 3.7184 60.0001 3.7184C57.3463 3.7184 54.7779 4.65657 52.7489 6.36711C50.7199 8.07764 49.3609 10.4504 48.9121 13.066C48.4634 15.6816 48.9537 18.3717 50.2965 20.6607C51.6393 22.9497 53.7481 24.6904 56.2501 25.575V30.225C49.6445 31.0638 43.5056 34.0763 38.8006 38.7881C34.0956 43.4999 31.0918 49.6431 30.2626 56.25H25.5751C24.6905 53.7479 22.9498 51.6392 20.6608 50.2964C18.3718 48.9536 15.6817 48.4632 13.0661 48.912C10.4505 49.3608 8.07775 50.7198 6.36721 52.7488C4.65668 54.7778 3.71851 57.3462 3.71851 60C3.71851 62.6538 4.65668 65.2222 6.36721 67.2512C8.07775 69.2802 10.4505 70.6392 13.0661 71.088C15.6817 71.5367 18.3718 71.0464 20.6608 69.7036C22.9498 68.3608 24.6905 66.252 25.5751 63.75H30.2626C30.6669 67.0108 31.6177 70.1801 33.0751 73.125C35.0099 69.1607 37.8023 65.6766 41.2501 62.925C40.0092 60.2458 39.3693 57.3276 39.3751 54.375C39.3881 49.5583 41.0806 44.8968 44.1608 41.1937C47.241 37.4906 51.5163 34.9775 56.2501 34.0875C58.729 33.6283 61.2712 33.6283 63.7501 34.0875C68.4839 34.9775 72.7592 37.4906 75.8394 41.1937C78.9197 44.8968 80.6121 49.5583 80.6251 54.375C80.6309 57.3276 79.991 60.2458 78.7501 62.925C82.1979 65.6766 84.9903 69.1607 86.9251 73.125C88.3825 70.1801 89.3333 67.0108 89.7376 63.75H94.4251C95.1131 65.6958 96.323 67.4148 97.9225 68.719C99.522 70.0232 101.45 70.8623 103.494 71.1444C105.538 71.4265 107.621 71.1407 109.514 70.3184C111.407 69.4962 113.037 68.169 114.226 66.4822C115.416 64.7954 116.118 62.814 116.256 60.7549C116.395 58.6957 115.964 56.6381 115.012 54.8073C114.059 52.9765 112.621 51.4429 110.855 50.3746C109.09 49.3062 107.064 48.7442 105 48.75Z" fill="white"/>
<path d="M98.175 97.05C96.5287 95.4119 94.4158 94.3234 92.1263 93.934C89.8367 93.5446 87.4828 93.8733 85.3875 94.875L75.8625 85.35C78.0248 84.0268 80.0042 82.4256 81.75 80.5875C80.5725 76.0906 78.031 72.0689 74.475 69.075C70.6116 72.8677 65.4139 74.9926 60 74.9926C54.5861 74.9926 49.3884 72.8677 45.525 69.075C41.969 72.0689 39.4275 76.0906 38.25 80.5875C40.0331 82.4626 42.0496 84.101 44.25 85.4625L34.8 94.9125C32.7039 93.9566 30.3699 93.6494 28.0979 94.0303C25.8259 94.4112 23.7197 95.4628 22.05 97.05C20.5839 98.5031 19.5458 100.332 19.0495 102.335C18.5532 104.339 18.6177 106.441 19.236 108.41C19.8543 110.379 21.0026 112.141 22.5551 113.501C24.1076 114.862 26.0044 115.769 28.038 116.123C30.0716 116.478 32.1635 116.266 34.0847 115.511C36.0058 114.756 37.6822 113.486 38.9303 111.842C40.1784 110.198 40.95 108.242 41.1607 106.189C41.3714 104.135 41.0131 102.063 40.125 100.2L51.5625 88.95C57.1229 90.6503 63.0646 90.6503 68.625 88.95L80.1 100.463C79.2119 102.326 78.8536 104.398 79.0643 106.451C79.275 108.505 80.0466 110.461 81.2947 112.105C82.5428 113.749 84.2192 115.018 86.1403 115.773C88.0615 116.528 90.1534 116.74 92.187 116.386C94.2206 116.031 96.1174 115.124 97.6699 113.764C99.2224 112.403 100.371 110.642 100.989 108.673C101.607 106.703 101.672 104.601 101.175 102.598C100.679 100.594 99.6411 98.7656 98.175 97.3125V97.05Z" fill="white"/>
</svg>
